<svg style="position: absolute; width: 0; height: 0;" width="0" height="0" version="1.1" xmlns="http://www.w3.org/2000/svg" xmlns:xlink="http://www.w3.org/1999/xlink"><defs><symbol id="list" viewBox="0 -212 1024 1024"><path d="M1436 702 l-1067 0 q-32 -2 -35 -35 q3 -32 35 -36 l1067 0 q32 4 35 36 q-3 33 -35 35 l0 0 ZM1436 347 l-1067 0 q-32 -3 -35 -35 q3 -33 35 -35 l1067 0 q32 2 35 35 q-3 32 -35 35 l0 0 ZM1436 -9 l-1067 0 q-32 -2 -35 -35 q3 -32 35 -35 l1067 0 q32 3 35 35 q-3 33 -35 35 l0 0 ZM156 63 q-97 -9 -106 -107 q9 -97 106 -106 q98 9 107 106 q-9 98 -107 107 l0 0 ZM156 -79 q-32 3 -35 35 q3 33 35 35 q33 -2 37 -35 q-4 -32 -37 -35 l0 0 ZM156 418 q-97 -9 -106 -106 q9 -98 106 -107 q98 9 107 107 q-9 97 -107 106 l0 0 ZM156 277 q-32 2 -35 35 q3 32 35 35 q33 -3 37 -35 q-4 -33 -37 -35 l0 0 ZM156 774 q-97 -9 -106 -107 q9 -97 106 -106 q98 9 107 106 q-9 98 -107 107 l0 0 ZM156 631 q-32 4 -35 36 q3 33 35 35 q33 -2 37 -35 q-4 -32 -37 -36 l0 0 Z"></path></symbol><symbol id="menu" viewBox="0 -212 1024 1024"><path d="M1352 -66 l-1260 0 q-39 -3 -42 -42 q3 -38 42 -42 l1260 0 q39 4 42 42 q-3 39 -42 42 l0 0 ZM1352 354 l-1260 0 q-39 -4 -42 -42 q3 -38 42 -42 l1260 0 q39 4 42 42 q-3 38 -42 42 l0 0 ZM1352 774 l-1260 0 q-39 -3 -42 -42 q3 -39 42 -42 l1260 0 q39 3 42 42 q-3 39 -42 42 l0 0 Z"></path></symbol><symbol id="tag" viewBox="0 -212 1024 1024"><path d="M407 774 q-34 0 -58 -24 l-275 -275 q-24 -24 -24 -57 q0 -34 24 -58 l464 -464 q48 -43 112 -46 l244 0 q74 7 80 81 l0 244 q-3 63 -46 111 l-464 464 q-24 24 -57 24 l0 0 ZM650 -96 q-42 4 -73 30 l-465 465 q-7 8 -7 19 q0 12 7 19 l276 275 q8 7 19 7 q11 0 19 -7 l464 -464 q27 -32 30 -73 l0 -244 q-2 -24 -26 -27 l-244 0 l0 0 ZM785 121 q-74 -8 -81 -82 q7 -74 81 -81 q74 7 81 81 q-7 74 -81 82 l0 0 ZM785 12 q-24 2 -27 27 q3 25 27 27 q25 -2 27 -27 q-2 -25 -27 -27 l0 0 Z"></path></symbol><symbol id="undo" viewBox="0 -212 1024 1024"><path d="M1010 -15 q-136 -133 -327 -135 q-190 2 -326 135 q-134 136 -136 327 l0 69 l-117 -116 q-19 -16 -38 0 q-16 19 0 39 l163 162 q9 8 19 8 q11 0 19 -8 l164 -162 q16 -20 0 -39 q-19 -16 -39 0 l-117 116 l0 -69 q5 -174 120 -289 q115 -115 288 -119 q174 4 288 119 q116 115 120 289 q-4 172 -119 287 q-115 115 -289 120 q-25 2 -27 27 q2 25 27 28 q191 -3 327 -136 q133 -136 135 -326 q-2 -192 -135 -327 l0 0 Z"></path></symbol><symbol id="cog" viewBox="0 -212 1024 1024"><path d="M391 1008.67 q-3 0 -7 -1 q-69 -18 -131 -54 q-19 -14 -9 -35 q12 -23 12 -49 q-9 -93 -102 -102 q-27 0 -49 12 q-21 9 -35 -9 q-36 -62 -54 -132 q-4 -21 17 -30 q66 -26 69 -97 q-3 -71 -69 -97 q-21 -9 -17 -31 q18 -69 54 -131 q14 -19 35 -10 q22 13 49 13 q93 -9 102 -103 q0 -26 -12 -49 q-10 -21 9 -34 q62 -36 131 -54 q22 -4 31 16 q26 67 97 70 q71 -3 97 -70 q9 -20 31 -16 q69 18 131 54 q19 13 9 34 q-12 23 -12 49 q9 94 102 103 q26 0 49 -13 q21 -9 35 10 q36 62 54 131 q4 22 -17 31 q-66 26 -69 97 q3 71 69 97 q21 9 17 30 q-18 70 -54 132 q-14 18 -35 9 q-23 -12 -49 -12 q-93 9 -102 102 q0 26 12 49 q10 21 -9 35 q-62 36 -131 54 q-22 3 -31 -17 q-26 -66 -97 -70 q-71 4 -97 70 q-7 17 -24 18 l0 0 ZM512 869.67 q92 4 136 82 q40 -12 77 -32 q-8 -24 -8 -50 q13 -140 153 -153 q26 0 51 8 q19 -37 31 -77 q-78 -45 -82 -136 q4 -92 82 -136 q-12 -40 -31 -77 q-25 8 -51 8 q-140 -13 -153 -154 q0 -26 8 -50 q-37 -19 -77 -32 q-44 79 -136 82 q-92 -3 -136 -82 q-40 13 -77 32 q8 24 8 50 q-13 141 -153 154 q-26 0 -51 -8 q-19 37 -31 77 q78 44 82 136 q-4 91 -82 136 q12 40 31 77 q25 -8 51 -8 q140 13 153 153 q0 26 -8 50 q37 20 77 32 q44 -78 136 -82 l0 0 ZM512 664.67 q-140 -13 -154 -153 q14 -140 154 -154 q140 14 154 154 q-14 140 -154 153 l0 0 ZM512 408.67 q-94 9 -102 103 q8 93 102 102 q94 -9 102 -102 q-8 -94 -102 -103 l0 0 Z"></path></symbol><symbol id="circle-minus" viewBox="0 -212 1024 1024"><path d="M839 -14 q-137 -133 -327 -136 q-190 3 -327 136 q-133 136 -135 326 q2 191 135 327 q137 133 327 135 q190 -2 327 -135 q133 -136 135 -327 q-2 -190 -135 -326 l0 0 ZM512 726 q-175 -5 -292 -121 q-117 -117 -121 -293 q4 -175 121 -292 q117 -116 292 -121 q175 5 292 121 q117 117 121 292 q-4 176 -121 293 q-117 116 -292 121 l0 0 ZM803 337 l-582 0 q-23 -2 -25 -25 q2 -21 25 -24 l582 0 q23 3 25 24 q-2 23 -25 25 l0 0 Z"></path></symbol><symbol id="cross-circle" viewBox="0 -212 1024 1024"><path d="M747 489 l-198 -177 l198 -176 q15 -16 2 -34 q-16 -15 -34 -3 l-203 181 l-203 -181 q-18 -12 -34 3 q-13 18 2 34 l198 176 l-198 177 q-15 16 -2 34 q8 9 18 9 q9 0 16 -7 l203 -180 l203 180 q7 7 16 7 q10 0 18 -9 q13 -18 -2 -34 l0 0 ZM512 774 q-190 -2 -327 -135 q-133 -136 -135 -327 q2 -190 135 -326 q137 -133 327 -136 q190 3 327 136 q133 136 135 326 q-2 191 -135 327 q-137 133 -327 135 l0 0 ZM512 -101 q-175 5 -292 121 q-117 117 -121 292 q4 176 121 293 q117 116 292 121 q175 -5 292 -121 q117 -117 121 -293 q-4 -175 -121 -292 q-117 -116 -292 -121 l0 0 Z"></path></symbol><symbol id="chevron-down-circle" viewBox="0 -212 1024 1024"><path d="M839 639 q133 -136 135 -327 q-2 -190 -135 -326 q-137 -133 -327 -136 q-190 3 -327 136 q-133 136 -135 326 q2 191 135 327 q137 133 327 135 q190 -2 327 -135 l0 0 ZM99 312 q4 -175 121 -292 q117 -116 292 -121 q175 5 292 121 q117 117 121 292 q-4 175 -121 293 q-117 116 -292 121 q-175 -5 -292 -121 q-117 -118 -121 -293 l0 0 ZM245 239 q0 -10 6 -17 q17 -14 35 0 l226 227 l226 -227 q17 -14 34 0 q14 17 0 34 l-243 244 q-17 13 -34 0 l-244 -244 q-7 -7 -6 -17 l0 0 Z"></path></symbol><symbol id="arrow-down" viewBox="0 -212 1024 1024"><path d="M389 766.5 l298 -297 q14 -18 0 -35 q-18 -15 -35 0 l-255 255 l0 -808 q-3 -22 -25 -24 q-23 2 -25 24 l0 808 l-255 -255 q-18 -15 -35 0 q-7 8 -7 17 q0 10 7 18 l297 297 q18 15 35 0 l0 0 Z"></path></symbol><symbol id="arrow-up" viewBox="0 -212 1024 1024"><path d="M361 -143 l-297 297 q-14 18 0 35 q17 15 35 0 l255 -255 l0 808 q2 22 25 25 q22 -3 24 -25 l0 -808 l256 255 q17 15 34 0 q8 -8 8 -17 q0 -10 -8 -18 l-297 -297 q-17 -14 -35 0 l0 0 Z"></path></symbol><symbol id="cloud" viewBox="0 -212 1024 1024"><path d="M1283 774 l-771 0 q-196 -5 -326 -136 q-131 -130 -136 -326 q5 -196 136 -327 q130 -130 326 -135 q192 3 328 136 q11 -23 25 -42 q71 -91 186 -94 q211 20 231 231 q0 41 -14 78 l15 0 q281 26 307 307 q-26 282 -307 308 l0 0 ZM512 -74 q-164 5 -272 114 q-109 108 -113 272 q4 163 113 272 q108 109 272 113 l771 0 q210 -20 231 -231 q-21 -210 -231 -231 q-41 0 -79 15 q-29 8 -46 -16 q-14 -25 5 -48 q42 -45 43 -105 q-14 -141 -155 -155 q-77 2 -124 63 q-26 37 -29 82 q-3 26 -29 34 q-25 6 -42 -14 q-12 -19 -27 -35 q-116 -127 -288 -130 l0 0 Z"></path></symbol><symbol id="alarm" viewBox="0 -212 1024 1024"><path d="M813 573 q-90 -70 -92 -184 l0 -154 q-14 -208 -205 -272 l0 -36 q-7 -71 -77 -77 q-71 6 -77 77 l0 36 q-192 64 -206 272 l0 154 q-2 114 -92 184 q-14 12 -9 29 q7 17 24 18 l234 0 q-3 12 -3 25 q12 117 129 129 q117 -12 128 -129 q0 -13 -2 -25 l233 0 q18 -1 24 -18 q5 -17 -9 -29 l0 0 ZM413 -73 q2 -24 26 -26 q23 2 25 26 l0 26 q-12 -1 -25 -1 q-13 0 -26 1 l0 -26 l0 0 ZM516 645 q-7 71 -77 77 q-71 -6 -77 -77 q0 -13 4 -25 l145 0 q5 12 5 25 l0 0 ZM143 568 q20 -24 34 -51 q31 -60 31 -128 l0 -154 q2 -98 67 -164 q66 -65 164 -67 q98 2 163 67 q65 66 68 164 l0 154 q0 68 30 128 q15 27 35 51 l-592 0 l0 0 Z"></path></symbol><symbol id="checkmark-circle" viewBox="0 -212 1024 1024"><path d="M512 774 q-190 -2 -327 -135 q-133 -136 -135 -327 q2 -190 135 -326 q137 -133 327 -136 q190 3 327 136 q133 136 135 326 q-2 191 -135 327 q-137 133 -327 135 l0 0 ZM512 -101 q-175 5 -292 121 q-117 117 -121 292 q4 176 121 293 q117 116 292 121 q175 -5 292 -121 q117 -117 121 -293 q-4 -175 -121 -292 q-117 -116 -292 -121 l0 0 ZM415 507 q-10 0 -18 -7 l-146 -146 q-13 -17 0 -35 q17 -14 35 0 l129 130 l323 -324 q17 -14 34 0 q14 18 0 35 l-340 340 q-8 7 -17 7 l0 0 Z"></path></symbol><symbol id="chart-bars" viewBox="0 -212 1024 1024"><path d="M901 774 l-778 0 q-67 -6 -73 -73 l0 -778 q6 -66 73 -73 l778 0 q67 7 73 73 l0 778 q-6 67 -73 73 l0 0 ZM123 -101 q-22 2 -24 24 l0 778 q2 23 24 25 l778 0 q22 -2 24 -25 l0 -778 q-2 -22 -24 -24 l-778 0 l0 0 ZM366 628 l-97 0 q-22 -2 -24 -24 l0 -438 q2 -22 24 -24 l97 0 q22 2 24 24 l0 438 q-2 22 -24 24 l0 0 ZM293 580 l48 0 l0 -390 l-48 0 l0 390 l0 0 ZM561 628 l-98 0 q-22 -2 -24 -24 l0 -583 q2 -23 24 -25 l98 0 q22 2 24 25 l0 583 q-2 22 -24 24 l0 0 ZM488 580 l48 0 l0 -535 l-48 0 l0 535 l0 0 ZM755 628 l-97 0 q-22 -2 -24 -24 l0 -243 q2 -23 24 -24 l97 0 q22 1 24 24 l0 243 q-2 22 -24 24 l0 0 ZM683 580 l48 0 l0 -195 l-48 0 l0 195 l0 0 Z"></path></symbol></defs></svg>